# xmcd
#
# Track frame offsets:
#	150
#	13753
#	28325
#	41622
#	55201
#	68320
#	78702
#	92178
#	105802
#	119103
#	132669
#	149549
#	164676
#
# Disc length: 2500 seconds
#
# Revision: 1
# Processed by: cddbd v1.4PL0 Copyright (c) Steve Scherf et al.
# Submitted via: audiograbber 1.80
#
DISCID=bc09c20d
DTITLE=Tiddas - Show us ya Tiddas
DYEAR=1900
DGENRE=
TTITLE0=Old Hat Creek
TTITLE1=Makin' Believe
TTITLE2=Little Girl
TTITLE3=Pour the Sea
TTITLE4=Aunty
TTITLE5=Inanay
TTITLE6=Stop All Your Fighting
TTITLE7=Earth Lately
TTITLE8=Valda's Caravan
TTITLE9=Sorry Song
TTITLE10=Spirit of the Winter Tree
TTITLE11=Rainbow
TTITLE12=Old Mountain Thyme
EXTD=
EXTT0=
EXTT1=
EXTT2=
EXTT3=
EXTT4=
EXTT5=
EXTT6=
EXTT7=
EXTT8=
EXTT9=
EXTT10=
EXTT11=
EXTT12=
PLAYORDER=
